<svg width="958.58pt" height="828.79pt" version="1.2" viewBox="0 0 958.58 828.79" xmlns="http://www.w3.org/2000/svg" xmlns:xlink="http://www.w3.org/1999/xlink"><defs><clipPath id="a"><path d="M354 131h377v262H354z"/></clipPath><clipPath id="b"><path d="M437.9 393l104.49-145.84L646.88 393h83.219l-187.71-262-187.71 262z"/></clipPath><clipPath id="d"><path d="M66 615h953v338H66z"/></clipPath><clipPath id="e"><path d="M805.93 615l126.61 176.71-80.625 93.641h-619.05l-80.621-93.641L278.854 615h-83.223L66.281 795.55 201.851 953h681.09l135.57-157.45L889.151 615z"/></clipPath><symbol id="g" overflow="visible"><path d="M27.797-87.688v-13.609H11.281v141.73H28.39v-51.906c3.688 4.656 7 7.969 10.109 9.906 5.25 3.313 11.469 5.063 19.25 5.063 9.719 0 18.266-3.11 25.656-9.14 11.469-9.532 17.297-25.267 17.297-47.439 0-16.328-3.875-28.969-12.047-37.906-7.969-8.75-17.891-13.219-29.359-13.219-7.781 0-14.578 1.938-20.219 5.828-4.078 2.531-7.781 6.031-11.281 10.688zm47.641 66.109C69.985-14.782 63.376-11.47 55.407-11.47c-11.656 0-19.828-5.25-24.297-15.75-2.328-5.438-3.5-12.25-3.5-20.031 0-9.719 1.172-17.688 3.5-24.109 4.469-11.859 12.438-17.688 24.297-17.688s19.828 5.453 24.312 16.719c2.328 5.828 3.5 12.828 3.5 20.812 0 13.406-2.531 23.328-7.781 29.938z"/></symbol><symbol id="h" overflow="visible"><path d="M29.547-87.875v-52.109H12.438V-.004h17.109v-53.859c0-13.609 2.922-22.938 8.75-27.609 5.844-4.86 12.062-7.375 19.25-7.375 8.563 0 14.391 2.719 17.5 8.36 1.938 3.5 2.719 8.937 2.719 16.327V-.004h17.703v-65.125c0-10.109-1.563-17.89-4.281-23.53-5.25-10.298-15.36-15.548-30.141-15.548-8.172 0-14.97 1.938-20.61 5.438-3.109 2.14-6.796 5.64-10.89 10.89z"/></symbol><symbol id="i" overflow="visible"><path d="M86.719-91.578c-8.953-8.75-20.031-13.016-33.25-13.016-14.578 0-26.25 5.047-34.797 15.156C9.922-79.329 5.641-65.719 5.641-48.61c0 15.953 4.078 28.578 12.25 38.109C26.251-.97 37.329 3.687 51.329 3.687c16.719 0 29.156-5.25 37.141-15.938 7.969-10.891 11.859-24.297 11.859-40.625 0-17.109-4.484-29.953-13.609-38.703zm-10.5 67.672c-4.281 8.547-12.062 12.828-23.344 12.828-10.297 0-17.875-3.5-22.547-10.703-4.86-7.188-7.188-16.328-7.188-27.016 0-11.469 2.329-21 7.188-28.969 4.672-7.969 12.25-11.859 22.75-11.859 11.672 0 20.031 4.656 24.891 14 3.11 6.016 4.469 13.609 4.469 23.125 0 10.5-1.953 20.031-6.219 28.594z"/></symbol><symbol id="j" overflow="visible"><path d="M33.25-101.69v-28.375H15.938v28.375H2.141v14h13.797v67.266c0 6.625 1.36 11.875 4.281 15.953S28.391 1.56 36.36 1.56c2.531 0 4.86 0 7-.39a31.223 31.223 0 006.031-1.172v-13.422c-1.172 0-2.343.203-3.312.203h-2.531c-3.11 0-5.438-.39-6.797-.969-2.344-1.36-3.5-3.703-3.5-7.203V-87.69h16.14v-14z"/></symbol><linearGradient id="c" x1="-.403" x2="1" gradientTransform="rotate(149.999 290.911 214.127) scale(325.12)" gradientUnits="userSpaceOnUse"><stop stop-color="#e97d0b" offset="0"/><stop stop-color="#e97d0b" offset=".25"/><stop stop-color="#e97d0b" offset=".313"/><stop stop-color="#e87c0c" offset=".328"/><stop stop-color="#e87b0c" offset=".344"/><stop stop-color="#e77a0d" offset=".352"/><stop stop-color="#e77a0d" offset=".359"/><stop stop-color="#e6790e" offset=".367"/><stop stop-color="#e6790e" offset=".375"/><stop stop-color="#e5780f" offset=".383"/><stop stop-color="#e5770f" offset=".391"/><stop stop-color="#e47710" offset=".398"/><stop stop-color="#e47610" offset=".406"/><stop stop-color="#e37511" offset=".414"/><stop stop-color="#e37412" offset=".422"/><stop stop-color="#e27312" offset=".43"/><stop stop-color="#e17313" offset=".438"/><stop stop-color="#e17213" offset=".445"/><stop stop-color="#e07114" offset=".453"/><stop stop-color="#df7015" offset=".461"/><stop stop-color="#df6f16" offset=".469"/><stop stop-color="#de6e16" offset=".473"/><stop stop-color="#de6d17" offset=".477"/><stop stop-color="#dd6d17" offset=".48"/><stop stop-color="#dd6c17" offset=".484"/><stop stop-color="#dc6c18" offset=".488"/><stop stop-color="#dc6b18" offset=".492"/><stop stop-color="#dc6b19" offset=".496"/><stop stop-color="#db6a19" offset=".5"/><stop stop-color="#db6a19" offset=".504"/><stop stop-color="#da691a" offset=".508"/><stop stop-color="#da681a" offset=".512"/><stop stop-color="#da681b" offset=".516"/><stop stop-color="#d9671b" offset=".52"/><stop stop-color="#d9671c" offset=".523"/><stop stop-color="#d8661c" offset=".527"/><stop stop-color="#d8661c" offset=".531"/><stop stop-color="#d7651d" offset=".535"/><stop stop-color="#d7641d" offset=".539"/><stop stop-color="#d7641e" offset=".543"/><stop stop-color="#d6631e" offset=".547"/><stop stop-color="#d6631f" offset=".551"/><stop stop-color="#d5621f" offset=".555"/><stop stop-color="#d56120" offset=".559"/><stop stop-color="#d46120" offset=".563"/><stop stop-color="#d46021" offset=".566"/><stop stop-color="#d35f21" offset=".57"/><stop stop-color="#d35f22" offset=".574"/><stop stop-color="#d25e22" offset=".578"/><stop stop-color="#d25d23" offset=".582"/><stop stop-color="#d25d23" offset=".586"/><stop stop-color="#d15c23" offset=".59"/><stop stop-color="#d15c24" offset=".594"/><stop stop-color="#d05b24" offset=".598"/><stop stop-color="#d05a25" offset=".602"/><stop stop-color="#cf5925" offset=".605"/><stop stop-color="#cf5926" offset=".609"/><stop stop-color="#ce5827" offset=".613"/><stop stop-color="#ce5727" offset=".617"/><stop stop-color="#cd5728" offset=".621"/><stop stop-color="#cd5628" offset=".625"/><stop stop-color="#cc5529" offset=".629"/><stop stop-color="#cb5529" offset=".633"/><stop stop-color="#cb542a" offset=".637"/><stop stop-color="#ca532a" offset=".641"/><stop stop-color="#ca522b" offset=".645"/><stop stop-color="#c9522b" offset=".648"/><stop stop-color="#c9512c" offset=".652"/><stop stop-color="#c8502c" offset=".656"/><stop stop-color="#c84f2d" offset=".66"/><stop stop-color="#c74f2e" offset=".664"/><stop stop-color="#c74e2e" offset=".668"/><stop stop-color="#c64d2f" offset=".672"/><stop stop-color="#c64c2f" offset=".676"/><stop stop-color="#c54c30" offset=".68"/><stop stop-color="#c44b30" offset=".684"/><stop stop-color="#c44a31" offset=".688"/><stop stop-color="#c34932" offset=".691"/><stop stop-color="#c34932" offset=".695"/><stop stop-color="#c24833" offset=".699"/><stop stop-color="#c24733" offset=".703"/><stop stop-color="#c14634" offset=".707"/><stop stop-color="#c04535" offset=".711"/><stop stop-color="#c04535" offset=".715"/><stop stop-color="#bf4436" offset=".719"/><stop stop-color="#bf4336" offset=".723"/><stop stop-color="#be4237" offset=".727"/><stop stop-color="#bd4138" offset=".73"/><stop stop-color="#bd4038" offset=".734"/><stop stop-color="#bc4039" offset=".738"/><stop stop-color="#bc3f39" offset=".742"/><stop stop-color="#bb3e3a" offset=".746"/><stop stop-color="#ba3d3b" offset=".75"/><stop stop-color="#ba3c3b" offset=".754"/><stop stop-color="#b93b3c" offset=".758"/><stop stop-color="#b83a3d" offset=".762"/><stop stop-color="#b83a3d" offset=".766"/><stop stop-color="#b7393e" offset=".77"/><stop stop-color="#b7383f" offset=".773"/><stop stop-color="#b6373f" offset=".777"/><stop stop-color="#b53640" offset=".781"/><stop stop-color="#b53541" offset=".785"/><stop stop-color="#b43441" offset=".789"/><stop stop-color="#b33342" offset=".793"/><stop stop-color="#b33343" offset=".797"/><stop stop-color="#b23243" offset=".801"/><stop stop-color="#b13144" offset=".805"/><stop stop-color="#b13045" offset=".809"/><stop stop-color="#b02f45" offset=".813"/><stop stop-color="#af2e46" offset=".816"/><stop stop-color="#af2d47" offset=".82"/><stop stop-color="#ae2c47" offset=".824"/><stop stop-color="#ad2b48" offset=".828"/><stop stop-color="#ad2a49" offset=".832"/><stop stop-color="#ac2949" offset=".836"/><stop stop-color="#ab294a" offset=".84"/><stop stop-color="#ab284b" offset=".844"/><stop stop-color="#aa274b" offset=".848"/><stop stop-color="#a9264c" offset=".852"/><stop stop-color="#a9254d" offset=".855"/><stop stop-color="#a8244e" offset=".859"/><stop stop-color="#a7234e" offset=".863"/><stop stop-color="#a6224f" offset=".867"/><stop stop-color="#a62150" offset=".871"/><stop stop-color="#a52050" offset=".875"/><stop stop-color="#a41f51" offset=".879"/><stop stop-color="#a41e52" offset=".883"/><stop stop-color="#a31d53" offset=".887"/><stop stop-color="#a21c53" offset=".891"/><stop stop-color="#a11b54" offset=".895"/><stop stop-color="#a11a55" offset=".898"/><stop stop-color="#a01956" offset=".902"/><stop stop-color="#9f1856" offset=".906"/><stop stop-color="#9f1757" offset=".91"/><stop stop-color="#9e1658" offset=".914"/><stop stop-color="#9d1559" offset=".918"/><stop stop-color="#9c1459" offset=".922"/><stop stop-color="#9c135a" offset=".926"/><stop stop-color="#9b125b" offset=".93"/><stop stop-color="#9a115c" offset=".934"/><stop stop-color="#99105c" offset=".938"/><stop stop-color="#990f5d" offset=".941"/><stop stop-color="#980e5e" offset=".945"/><stop stop-color="#970d5f" offset=".949"/><stop stop-color="#960c5f" offset=".953"/><stop stop-color="#960b60" offset=".957"/><stop stop-color="#950a61" offset=".961"/><stop stop-color="#940962" offset=".965"/><stop stop-color="#930863" offset=".969"/><stop stop-color="#920763" offset=".973"/><stop stop-color="#920564" offset=".977"/><stop stop-color="#910465" offset=".98"/><stop stop-color="#900366" offset=".984"/><stop stop-color="#8f0267" offset=".988"/><stop stop-color="#8f0167" offset=".992"/><stop stop-color="#8e0068" offset=".996"/><stop stop-color="#8d0069" offset="1"/></linearGradient><linearGradient id="f" x1="-.109" x2="1.095" gradientTransform="rotate(150 369.231 409.447) scale(824.65)" gradientUnits="userSpaceOnUse"><stop stop-color="#e97d0b" offset="0"/><stop stop-color="#e97d0b" offset=".125"/><stop stop-color="#e87c0c" offset=".141"/><stop stop-color="#e87b0c" offset=".156"/><stop stop-color="#e77a0d" offset=".172"/><stop stop-color="#e6790e" offset=".18"/><stop stop-color="#e6790e" offset=".188"/><stop stop-color="#e6780e" offset=".195"/><stop stop-color="#e5780f" offset=".203"/><stop stop-color="#e5770f" offset=".211"/><stop stop-color="#e47710" offset=".219"/><stop stop-color="#e47610" offset=".227"/><stop stop-color="#e37511" offset=".234"/><stop stop-color="#e37511" offset=".242"/><stop stop-color="#e27412" offset=".25"/><stop stop-color="#e27312" offset=".258"/><stop stop-color="#e17213" offset=".266"/><stop stop-color="#e17213" offset=".273"/><stop stop-color="#e07114" offset=".281"/><stop stop-color="#e07015" offset=".289"/><stop stop-color="#df6f15" offset=".297"/><stop stop-color="#de6e16" offset=".305"/><stop stop-color="#de6e16" offset=".313"/><stop stop-color="#dd6d17" offset=".32"/><stop stop-color="#dc6c18" offset=".328"/><stop stop-color="#dc6b19" offset=".336"/><stop stop-color="#db6a19" offset=".344"/><stop stop-color="#da691a" offset=".352"/><stop stop-color="#da681b" offset=".359"/><stop stop-color="#d9671b" offset=".367"/><stop stop-color="#d8661c" offset=".371"/><stop stop-color="#d8661c" offset=".375"/><stop stop-color="#d8651d" offset=".379"/><stop stop-color="#d7651d" offset=".383"/><stop stop-color="#d7641e" offset=".387"/><stop stop-color="#d6641e" offset=".391"/><stop stop-color="#d6631e" offset=".395"/><stop stop-color="#d6621f" offset=".398"/><stop stop-color="#d5621f" offset=".402"/><stop stop-color="#d56120" offset=".406"/><stop stop-color="#d46120" offset=".41"/><stop stop-color="#d46020" offset=".414"/><stop stop-color="#d46021" offset=".418"/><stop stop-color="#d35f21" offset=".422"/><stop stop-color="#d35f22" offset=".426"/><stop stop-color="#d25e22" offset=".43"/><stop stop-color="#d25e22" offset=".434"/><stop stop-color="#d25d23" offset=".438"/><stop stop-color="#d15c23" offset=".441"/><stop stop-color="#d15c24" offset=".445"/><stop stop-color="#d05b24" offset=".449"/><stop stop-color="#d05b25" offset=".453"/><stop stop-color="#d05a25" offset=".457"/><stop stop-color="#cf5a25" offset=".461"/><stop stop-color="#cf5926" offset=".465"/><stop stop-color="#ce5826" offset=".469"/><stop stop-color="#ce5827" offset=".473"/><stop stop-color="#cd5727" offset=".477"/><stop stop-color="#cd5728" offset=".48"/><stop stop-color="#cc5628" offset=".484"/><stop stop-color="#cc5529" offset=".488"/><stop stop-color="#cc5529" offset=".492"/><stop stop-color="#cb5429" offset=".496"/><stop stop-color="#cb532a" offset=".5"/><stop stop-color="#ca532a" offset=".504"/><stop stop-color="#ca522b" offset=".508"/><stop stop-color="#c9522b" offset=".512"/><stop stop-color="#c9512c" offset=".516"/><stop stop-color="#c8502c" offset=".52"/><stop stop-color="#c8502d" offset=".523"/><stop stop-color="#c74f2d" offset=".527"/><stop stop-color="#c74e2e" offset=".531"/><stop stop-color="#c74e2e" offset=".535"/><stop stop-color="#c64d2f" offset=".539"/><stop stop-color="#c64c2f" offset=".543"/><stop stop-color="#c54c30" offset=".547"/><stop stop-color="#c54b30" offset=".551"/><stop stop-color="#c44a31" offset=".555"/><stop stop-color="#c44a31" offset=".559"/><stop stop-color="#c34932" offset=".563"/><stop stop-color="#c34832" offset=".566"/><stop stop-color="#c24833" offset=".57"/><stop stop-color="#c24733" offset=".574"/><stop stop-color="#c14634" offset=".578"/><stop stop-color="#c14634" offset=".582"/><stop stop-color="#c04535" offset=".586"/><stop stop-color="#c04435" offset=".59"/><stop stop-color="#bf4436" offset=".594"/><stop stop-color="#bf4336" offset=".598"/><stop stop-color="#be4237" offset=".602"/><stop stop-color="#be4237" offset=".605"/><stop stop-color="#bd4138" offset=".609"/><stop stop-color="#bd4038" offset=".613"/><stop stop-color="#bc3f39" offset=".617"/><stop stop-color="#bb3f3a" offset=".621"/><stop stop-color="#bb3e3a" offset=".625"/><stop stop-color="#ba3d3b" offset=".629"/><stop stop-color="#ba3c3b" offset=".633"/><stop stop-color="#b93c3c" offset=".637"/><stop stop-color="#b93b3c" offset=".641"/><stop stop-color="#b83a3d" offset=".645"/><stop stop-color="#b83a3d" offset=".648"/><stop stop-color="#b7393e" offset=".652"/><stop stop-color="#b7383e" offset=".656"/><stop stop-color="#b6373f" offset=".66"/><stop stop-color="#b63740" offset=".664"/><stop stop-color="#b53640" offset=".668"/><stop stop-color="#b43541" offset=".672"/><stop stop-color="#b43441" offset=".676"/><stop stop-color="#b33342" offset=".68"/><stop stop-color="#b33342" offset=".684"/><stop stop-color="#b23243" offset=".688"/><stop stop-color="#b23144" offset=".691"/><stop stop-color="#b13044" offset=".695"/><stop stop-color="#b03045" offset=".699"/><stop stop-color="#b02f45" offset=".703"/><stop stop-color="#af2e46" offset=".707"/><stop stop-color="#af2d46" offset=".711"/><stop stop-color="#ae2c47" offset=".715"/><stop stop-color="#ae2c48" offset=".719"/><stop stop-color="#ad2b48" offset=".723"/><stop stop-color="#ac2a49" offset=".727"/><stop stop-color="#ac2949" offset=".73"/><stop stop-color="#ab284a" offset=".734"/><stop stop-color="#ab284b" offset=".738"/><stop stop-color="#aa274b" offset=".742"/><stop stop-color="#aa264c" offset=".746"/><stop stop-color="#a9254c" offset=".75"/><stop stop-color="#a8244d" offset=".754"/><stop stop-color="#a8244e" offset=".758"/><stop stop-color="#a7234e" offset=".762"/><stop stop-color="#a7224f" offset=".766"/><stop stop-color="#a62150" offset=".77"/><stop stop-color="#a52050" offset=".773"/><stop stop-color="#a51f51" offset=".777"/><stop stop-color="#a41f51" offset=".781"/><stop stop-color="#a31e52" offset=".785"/><stop stop-color="#a31d53" offset=".789"/><stop stop-color="#a21c53" offset=".793"/><stop stop-color="#a21b54" offset=".797"/><stop stop-color="#a11a55" offset=".801"/><stop stop-color="#a01a55" offset=".805"/><stop stop-color="#a01956" offset=".809"/><stop stop-color="#9f1856" offset=".813"/><stop stop-color="#9e1757" offset=".816"/><stop stop-color="#9e1658" offset=".82"/><stop stop-color="#9d1558" offset=".824"/><stop stop-color="#9d1459" offset=".828"/><stop stop-color="#9c135a" offset=".832"/><stop stop-color="#9b135a" offset=".836"/><stop stop-color="#9b125b" offset=".84"/><stop stop-color="#9a115c" offset=".844"/><stop stop-color="#99105c" offset=".848"/><stop stop-color="#990f5d" offset=".852"/><stop stop-color="#980e5e" offset=".855"/><stop stop-color="#970d5e" offset=".859"/><stop stop-color="#970c5f" offset=".863"/><stop stop-color="#960c60" offset=".867"/><stop stop-color="#950b60" offset=".871"/><stop stop-color="#950a61" offset=".875"/><stop stop-color="#940962" offset=".879"/><stop stop-color="#940862" offset=".883"/><stop stop-color="#930763" offset=".887"/><stop stop-color="#920664" offset=".891"/><stop stop-color="#920564" offset=".895"/><stop stop-color="#910465" offset=".898"/><stop stop-color="#900366" offset=".902"/><stop stop-color="#900266" offset=".906"/><stop stop-color="#8f0267" offset=".91"/><stop stop-color="#8e0168" offset=".914"/><stop stop-color="#8e0068" offset=".918"/><stop stop-color="#8d0069" offset=".922"/><stop stop-color="#8d0069" offset=".938"/><stop stop-color="#8d0069" offset="1"/></linearGradient></defs><g clip-path="url(#a)" transform="translate(-63.1 -126.71)"><g clip-path="url(#b)"><path d="M843.55 327.5L636.25-31.56 241.24 196.5l207.3 359.06z" fill="url(#c)"/></g></g><path d="M374.8 266.29l104.49-145.84 104.49 145.84h83.219l-187.71-262-187.71 262z" fill="none" stroke="#000" stroke-miterlimit="10" stroke-width="5"/><g clip-path="url(#d)" transform="translate(-63.1 -126.71)"><g clip-path="url(#e)"><path d="M1164.9 868.5L780.49 202.67-80.04 699.5l384.42 665.83z" fill="url(#f)"/></g></g><path d="M742.83 488.29L869.44 665l-80.625 93.641h-619.05L89.144 665l126.61-176.71h-83.223L3.181 668.84l135.57 157.45h681.09l135.57-157.45-129.35-180.55z" fill="none" stroke="#000" stroke-miterlimit="10" stroke-width="5"/><g transform="translate(-63.1 -126.71)"><use x="300.168" y="774.258" width="100%" height="100%" xlink:href="#g"/><use x="408.268" y="774.258" width="100%" height="100%" xlink:href="#h"/><use x="516.367" y="774.258" width="100%" height="100%" xlink:href="#i"/><use x="624.467" y="774.258" width="100%" height="100%" xlink:href="#j"/><use x="678.517" y="774.258" width="100%" height="100%" xlink:href="#i"/><path d="M106.32 573.36V426h36.238v56.281H187.8v-1.617c0-17.664-.004-35.332.004-53 0-.555.074-1.11.113-1.664h36v147.31h-36.14v-55.926h-45.23v55.973zm356.72-142.47v137.2h-26.066v-50.566c-6.664 4.117-19.406 7.644-33.324 6.86-23.125-1.372-40.766-14.11-40.766-50.763v-42.727h26.066v42.332c0 16.27 5.688 23.914 17.445 25.875 11.758 1.957 23.914-1.375 30.578-4.507v-63.7z"/><path d="M441.97 563.09h16.07v-127.2h-16.07v61.871l-2.867 1.352c-7.973 3.75-20.961 7.007-33.527 4.914-14.551-2.422-21.625-12.5-21.625-30.805V435.89h-16.066v37.727c0 29.77 11.46 44.312 36.062 45.773 12.965.722 24.609-2.551 30.398-6.125l7.625-4.711zm26.07 10h-36.07v-47.723c-7.238 2.652-17.246 4.645-28.602 4.004-20.758-1.23-45.484-11.902-45.484-55.754V425.89h36.066v47.332c0 15.547 5.305 19.613 13.266 20.94 8.887 1.481 18.293-.433 24.754-2.886V425.89h36.07zm114.24-73.41c0-25.086-14.898-43.902-39.789-43.902-25.09 0-39.984 18.816-39.984 43.902 0 24.891 14.895 43.707 39.984 43.707 24.891 0 39.789-18.816 39.789-43.707m26.652 0c0 39.398-27.047 69.973-66.441 69.973-39.398 0-66.641-30.574-66.641-69.973 0-39.395 27.242-69.973 66.641-69.973 39.395 0 66.441 30.578 66.441 69.973"/><path d="M542.49 460.78c-21.254 0-34.984 15.27-34.984 38.902 0 23.516 13.73 38.707 34.984 38.707 21.133 0 34.785-15.191 34.785-38.707 0-23.633-13.652-38.902-34.785-38.902m0 87.609c-13.527 0-24.992-4.918-33.16-14.219-7.625-8.691-11.824-20.938-11.824-34.488 0-29.25 18.078-48.902 44.984-48.902 13.453 0 24.863 4.93 32.996 14.258 7.715 8.848 11.789 20.828 11.789 34.645 0 13.539-4.188 25.785-11.793 34.48-8.14 9.309-19.551 14.227-32.992 14.227m0-113.68c-35.719 0-61.641 27.328-61.641 64.973 0 37.648 25.922 64.973 61.641 64.973 35.602 0 61.441-27.324 61.441-64.973 0-37.645-25.84-64.973-61.441-64.973m0 139.95c-20.246 0-38.621-7.742-51.75-21.801-12.824-13.738-19.891-32.621-19.891-53.172s7.066-39.434 19.891-53.172c13.129-14.059 31.504-21.801 51.75-21.801 20.234 0 38.578 7.746 51.656 21.809 12.762 13.723 19.785 32.605 19.785 53.164 0 20.562-7.023 39.441-19.785 53.164-13.078 14.062-31.422 21.809-51.656 21.809m179.02-118.5h-36.848v112.11h-26.07V456.16h-36.848v-25.09h99.766z"/><path d="M663.59 563.27h16.07V451.16h36.848v-15.09h-89.766v15.09h36.848zm26.07 10h-36.07V461.16h-36.848v-35.09h109.77v35.09h-36.848zm219.03-60.34l-11.953 14.109v41.555h-26.07v-137.2h26.07v55.273l46.645-55.273h34.105l-51.352 60.957 54.289 76.246h-31.945z"/><path d="M951.05 563.59h19.68l-50.914-71.504 46.922-55.695h-21.031l-53.969 63.945v-63.945h-16.07v127.2h16.07v-38.387l17.289-20.41zm39.074 10h-44.219l-37.547-52.535-6.621 7.816v44.72h-36.07v-147.2h36.07v46.593l39.324-46.594h47.176l-55.781 66.211zM760.43 511.9v-35.188l24.988 35.188zm65.473 57.008h31.961l-97.434-137.2h-26.062v137.2h26.062v-30.945h43.5z"/><path d="M765.43 506.58h10.305l-10.305-14.512zm29.672 10H755.43v-55.863zm33.383 47.008h19.695l-90.332-127.2h-18.48v127.2h16.062v-30.945h51.082zm39.062 10H823.32l-21.973-30.945h-35.918v30.625h-36.062v-147.2h33.762zM322.08 425.89c-19.609 27.227-39.457 54.676-59.238 82.141v-81.91h-1.262c-11.238 0-22.477-.004-33.715.004-.437 0-.87.074-1.308.117v147.12c8.68 0 33.77.016 33.77.016 19.695-27.348 39.289-54.551 59.066-82.02v82.004h36.285v-147.47z"/></g><path d="M155.54 303.99v137.2h-26.066v-56.055H74.201v56.055H48.135v-137.2h26.066v56.25h55.273v-56.25zm244.4-.01v137.2h-26.066v-50.566c-6.664 4.117-19.406 7.645-33.324 6.86-23.125-1.372-40.766-14.114-40.766-50.763v-42.73h26.066v42.336c0 16.27 5.687 23.914 17.445 25.875 11.758 1.957 23.914-1.375 30.578-4.507v-63.703zm119.24 68.8c0-25.09-14.898-43.902-39.789-43.902-25.09 0-39.984 18.812-39.984 43.902 0 24.891 14.895 43.707 39.984 43.707 24.891 0 39.789-18.816 39.789-43.707m26.652 0c0 39.395-27.047 69.973-66.441 69.973-39.398 0-66.641-30.578-66.641-69.973s27.242-69.973 66.641-69.973c39.395 0 66.441 30.578 66.441 69.973m112.578-43.53h-36.848v112.11h-26.07V329.25h-36.848v-25.09h99.766zm187.18 56.77l-11.953 14.113v41.551h-26.07v-137.2h26.07v55.273l46.645-55.273h34.105l-51.352 60.957 54.289 76.242h-31.945zM261.1 303.98v.004l-.004-.004-66.688 92.609V303.98h-26.066v137.2h26.066v-.004l.004.004 66.688-92.609v92.609h26.066v-137.2zm436.23 80.2v-35.188l24.988 35.188zm65.473 57.008h31.961l-97.434-137.2v-.004.004h-26.062v137.2h26.062v-30.945h43.5z" fill="#e87d0a"/></svg>